{
  "accessors": [
    {
      "bufferView": 2,
      "componentType": 5126,
      "count": 4015,
      "max": [
        2.3422579765319824,
        0.1167140007019043,
        2.4407660961151123
      ],
      "min": [
        -1.8551629781723022,
        -2.493195056915283,
        -1.3857519626617432
      ],
      "type": "VEC3"
    },
    {
      "bufferView": 2,
      "byteOffset": 48180,
      "componentType": 5126,
      "count": 4015,
      "max": [
        0.9993767738342285,
        0.9999995827674866,
        0.9999756813049316
      ],
      "min": [
        -0.9992873072624207,
        -0.9995961785316467,
        -0.9996510744094849
      ],
      "type": "VEC3"
    },
    {
      "bufferView": 1,
      "componentType": 5126,
      "count": 4015,
      "max": [
        0.9887999892234802,
        0.11810000240802765
      ],
      "min": [
        0.0038999998942017555,
        0.00139999995008111
      ],
      "type": "VEC2"
    },
    {
      "bufferView": 0,
      "componentType": 5125,
      "count": 22254,
      "type": "SCALAR"
    },
    {
      "bufferView": 2,
      "byteOffset": 96360,
      "componentType": 5126,
      "count": 57424,
      "max": [
        6.560019016265869,
        8.023147583007813,
        2.7037858963012695
      ],
      "min": [
        -6.250189781188965,
        -5.739013195037842,
        -8.271576881408691
      ],
      "type": "VEC3"
    },
    {
      "bufferView": 2,
      "byteOffset": 785448,
      "componentType": 5126,
      "count": 57424,
      "max": [
        0.9999960064888,
        0.9999518394470215,
        0.999993085861206
      ],
      "min": [
        -0.9998586773872375,
        -0.9999325275421143,
        -0.9999969005584717
      ],
      "type": "VEC3"
    },
    {
      "bufferView": 1,
      "byteOffset": 32120,
      "componentType": 5126,
      "count": 57424,
      "max": [
        0.48570001125335693,
        1.0
      ],
      "min": [
        0.0,
        0.7526000142097473
      ],
      "type": "VEC2"
    },
    {
      "bufferView": 0,
      "byteOffset": 89016,
      "componentType": 5125,
      "count": 246024,
      "type": "SCALAR"
    },
    {
      "bufferView": 2,
      "byteOffset": 1474536,
      "componentType": 5126,
      "count": 21249,
      "max": [
        6.16050910949707,
        33.441932678222656,
        12.81590461730957
      ],
      "min": [
        -6.16050910949707,
        20.405176162719727,
        3.461967945098877
      ],
      "type": "VEC3"
    },
    {
      "bufferView": 2,
      "byteOffset": 1729524,
      "componentType": 5126,
      "count": 21249,
      "max": [
        0.9997541308403015,
        0.999998927116394,
        0.999980092048645
      ],
      "min": [
        -0.9997541308403015,
        -0.9998951554298401,
        -0.999998152256012
      ],
      "type": "VEC3"
    },
    {
      "bufferView": 3,
      "componentType": 5126,
      "count": 21249,
      "max": [
        1.0,
        0.9997392296791077,
        0.9999932646751404,
        1.0
      ],
      "min": [
        -0.9999995827674866,
        -0.9997392296791077,
        -0.9999932646751404,
        -1.0
      ],
      "type": "VEC4"
    },
    {
      "bufferView": 1,
      "byteOffset": 491512,
      "componentType": 5126,
      "count": 21249,
      "max": [
        0.9960939884185791,
        0.9953920245170593
      ],
      "min": [
        0.0039059999398887157,
        0.004395000170916319
      ],
      "type": "VEC2"
    },
    {
      "bufferView": 0,
      "byteOffset": 1073112,
      "componentType": 5125,
      "count": 118128,
      "type": "SCALAR"
    },
    {
      "bufferView": 2,
      "byteOffset": 1984512,
      "componentType": 5126,
      "count": 640,
      "max": [
        6.381411075592041,
        29.418270111083984,
        11.778338432312012
      ],
      "min": [
        2.8818445205688477,
        28.202486038208008,
        10.588278770446777
      ],
      "type": "VEC3"
    },
    {
      "bufferView": 2,
      "byteOffset": 1992192,
      "componentType": 5126,
      "count": 640,
      "max": [
        0.9973751902580261,
        0.999605119228363,
        0.9991520643234253
      ],
      "min": [
        -0.9973751902580261,
        -0.9995129704475403,
        -0.9938086867332458
      ],
      "type": "VEC3"
    },
    {
      "bufferView": 1,
      "byteOffset": 661504,
      "componentType": 5126,
      "count": 640,
      "max": [
        0.9887700080871582,
        0.9894260168075562
      ],
      "min": [
        0.012253000400960445,
        0.011230000294744968
      ],
      "type": "VEC2"
    },
    {
      "bufferView": 0,
      "byteOffset": 1545624,
      "componentType": 5125,
      "count": 3576,
      "type": "SCALAR"
    },
    {
      "bufferView": 2,
      "byteOffset": 1999872,
      "componentType": 5126,
      "count": 534,
      "max": [
        6.391561985015869,
        29.430530548095703,
        11.82676887512207
      ],
      "min": [
        2.8716936111450195,
        28.192110061645508,
        10.580208778381348
      ],
      "type": "VEC3"
    },
    {
      "bufferView": 2,
      "byteOffset": 2006280,
      "componentType": 5126,
      "count": 534,
      "max": [
        0.9984066486358643,
        0.9988728165626526,
        0.9997014999389648
      ],
      "min": [
        -0.9984065890312195,
        -0.9965153932571411,
        -0.9900745153427124
      ],
      "type": "VEC3"
    },
    {
      "bufferView": 3,
      "byteOffset": 339984,
      "componentType": 5126,
      "count": 534,
      "max": [
        0.9983677864074707,
        0.6614146828651428,
        0.9992554187774658,
        1.0
      ],
      "min": [
        -0.9983677268028259,
        -0.532619833946228,
        -0.9832553863525391,
        -1.0
      ],
      "type": "VEC4"
    },
    {
      "bufferView": 1,
      "byteOffset": 666624,
      "componentType": 5126,
      "count": 534,
      "max": [
        0.9936519861221313,
        0.9905089735984802
      ],
      "min": [
        0.005878000054508448,
        0.005859000142663717
      ],
      "type": "VEC2"
    },
    {
      "bufferView": 0,
      "byteOffset": 1559928,
      "componentType": 5125,
      "count": 2940,
      "type": "SCALAR"
    },
    {
      "bufferView": 2,
      "byteOffset": 2012688,
      "componentType": 5126,
      "count": 5628,
      "max": [
        0.0831623449921608,
        2.307002067565918,
        0.128748819231987
      ],
      "min": [
        -0.0776330903172493,
        2.2785189151763916,
        0.097488634288311
      ],
      "type": "VEC3"
    },
    {
      "bufferView": 2,
      "byteOffset": 2080224,
      "componentType": 5126,
      "count": 5628,
      "max": [
        0.9995647668838501,
        0.9998881816864014,
        0.9992806315422058
      ],
      "min": [
        -0.9995654821395874,
        -0.9977110028266907,
        -0.9886868596076965
      ],
      "type": "VEC3"
    },
    {
      "bufferView": 1,
      "byteOffset": 670896,
      "componentType": 5126,
      "count": 5628,
      "max": [
        0.9534819722175598,
        1.0015970468521118
      ],
      "min": [
        0.0460049994289875,
        0.041411999613046646
      ],
      "type": "VEC2"
    },
    {
      "bufferView": 0,
      "byteOffset": 1571688,
      "componentType": 5125,
      "count": 14148,
      "type": "SCALAR"
    },
    {
      "bufferView": 2,
      "byteOffset": 2147760,
      "componentType": 5126,
      "count": 4280,
      "max": [
        1.8603209257125854,
        28.82118034362793,
        11.503544807434082
      ],
      "min": [
        -1.8603209257125854,
        28.52961540222168,
        11.086884498596191
      ],
      "type": "VEC3"
    },
    {
      "bufferView": 2,
      "byteOffset": 2199120,
      "componentType": 5126,
      "count": 4280,
      "max": [
        0.9785006642341614,
        0.9849210381507874,
        0.9998435974121094
      ],
      "min": [
        -0.9785006642341614,
        -0.8925269246101379,
        -0.845749020576477
      ],
      "type": "VEC3"
    },
    {
      "bufferView": 3,
      "byteOffset": 348528,
      "componentType": 5126,
      "count": 4280,
      "max": [
        0.7598304152488708,
        -0.12509246170520782,
        0.9729505777359009,
        1.0
      ],
      "min": [
        -0.7598519325256348,
        -0.9999976754188538,
        -0.9531568288803101,
        -1.0
      ],
      "type": "VEC4"
    },
    {
      "bufferView": 1,
      "byteOffset": 715920,
      "componentType": 5126,
      "count": 4280,
      "max": [
        0.42307329177856445,
        0.99993497133255
      ],
      "min": [
        0.1949624866247177,
        0.020956696942448616
      ],
      "type": "VEC2"
    },
    {
      "bufferView": 0,
      "byteOffset": 1628280,
      "componentType": 5125,
      "count": 23970,
      "type": "SCALAR"
    }
  ],
  "asset": {
    "extras": {
      "author": "NikZava284 ✓ (https://sketchfab.com/NikZava284)",
      "license": "CC-BY-4.0 (http://creativecommons.org/licenses/by/4.0/)",
      "source": "https://sketchfab.com/3d-models/angelica-27f75fa94c384000bb6a79a3000f8e80",
      "title": "Angelica"
    },
    "generator": "Sketchfab-12.66.0",
    "version": "2.0"
  },
  "bufferViews": [
    {
      "buffer": 0,
      "byteLength": 1724160,
      "name": "floatBufferViews",
      "target": 34963
    },
    {
      "buffer": 0,
      "byteLength": 750160,
      "byteOffset": 1724160,
      "byteStride": 8,
      "name": "floatBufferViews",
      "target": 34962
    },
    {
      "buffer": 0,
      "byteLength": 2250480,
      "byteOffset": 2474320,
      "byteStride": 12,
      "name": "floatBufferViews",
      "target": 34962
    },
    {
      "buffer": 0,
      "byteLength": 417008,
      "byteOffset": 4724800,
      "byteStride": 16,
      "name": "floatBufferViews",
      "target": 34962
    }
  ],
  "buffers": [
    {
      "byteLength": 5141808,
      "uri": "scene.bin"
    }
  ],
  "extensionsRequired": [
    "KHR_materials_pbrSpecularGlossiness"
  ],
  "extensionsUsed": [
    "KHR_materials_pbrSpecularGlossiness"
  ],
  "images": [
    {
      "uri": "textures/Hair_diffuse.png"
    },
    {
      "uri": "textures/Hair_emissive.png"
    },
    {
      "uri": "textures/Head_diffuse.jpeg"
    },
    {
      "uri": "textures/Head_specularGlossiness.png"
    },
    {
      "uri": "textures/Head_normal.jpeg"
    },
    {
      "uri": "textures/Head_occlusion.png"
    },
    {
      "uri": "textures/material_diffuse.jpeg"
    },
    {
      "uri": "textures/EyeScleraReflect_normal.png"
    },
    {
      "uri": "textures/Eyelashes_diffuse.png"
    },
    {
      "uri": "textures/MeniscusEye_specularGlossiness.png"
    },
    {
      "uri": "textures/MeniscusEye_normal.png"
    }
  ],
  "materials": [
    {
      "doubleSided": true,
      "extensions": {
        "KHR_materials_pbrSpecularGlossiness": {
          "diffuseFactor": [
            0.8,
            0.8,
            0.8,
            1.0
          ],
          "glossinessFactor": 0.1788854382,
          "specularFactor": [
            0.0,
            0.0,
            0.0
          ]
        }
      },
      "name": "Mouth"
    },
    {
      "alphaMode": "BLEND",
      "emissiveFactor": [
        0.6231060606060606,
        0.6231060606060606,
        0.6231060606060606
      ],
      "emissiveTexture": {
        "index": 1
      },
      "extensions": {
        "KHR_materials_pbrSpecularGlossiness": {
          "diffuseFactor": [
            0.5107954545454545,
            0.5107954545454545,
            0.5107954545454545,
            0.7471590909090909
          ],
          "diffuseTexture": {
            "index": 0
          },
          "glossinessFactor": 0.7376893939393939,
          "specularFactor": [
            0.012922662032226674,
            0.008450028242191395,
            0.0054339227042874555
          ]
        }
      },
      "name": "Hair"
    },
    {
      "doubleSided": true,
      "extensions": {
        "KHR_materials_pbrSpecularGlossiness": {
          "diffuseFactor": [
            1.0,
            1.0,
            1.0,
            1.0
          ],
          "diffuseTexture": {
            "index": 2
          },
          "glossinessFactor": 0.4651295731707317,
          "specularFactor": [
            0.08708079268292683,
            0.08708079268292683,
            0.08708079268292683
          ],
          "specularGlossinessTexture": {
            "index": 3
          }
        }
      },
      "name": "Head",
      "normalTexture": {
        "index": 4,
        "scale": 0.6297637195121951
      },
      "occlusionTexture": {
        "index": 5
      }
    },
    {
      "doubleSided": true,
      "extensions": {
        "KHR_materials_pbrSpecularGlossiness": {
          "diffuseFactor": [
            1.0,
            1.0,
            1.0,
            1.0
          ],
          "diffuseTexture": {
            "index": 6
          },
          "glossinessFactor": 0.4138257576,
          "specularFactor": [
            0.0,
            0.0,
            0.0
          ],
          "specularGlossinessTexture": {
            "index": 6
          }
        }
      },
      "name": "material"
    },
    {
      "alphaMode": "BLEND",
      "doubleSided": true,
      "extensions": {
        "KHR_materials_pbrSpecularGlossiness": {
          "diffuseFactor": [
            0.0,
            0.0,
            0.0,
            0.0
          ],
          "glossinessFactor": 1.0,
          "specularFactor": [
            0.2623106060606061,
            0.2623106060606061,
            0.2623106060606061
          ]
        }
      },
      "name": "EyeScleraReflect",
      "normalTexture": {
        "index": 7
      }
    },
    {
      "alphaMode": "BLEND",
      "doubleSided": true,
      "extensions": {
        "KHR_materials_pbrSpecularGlossiness": {
          "diffuseFactor": [
            0.0124862627286856,
            0.008911694830553851,
            0.0065593531825604,
            1.0
          ],
          "diffuseTexture": {
            "index": 8
          },
          "glossinessFactor": 0.0056156375,
          "specularFactor": [
            0.0,
            0.0,
            0.0
          ]
        }
      },
      "name": "Eyelashes"
    },
    {
      "alphaMode": "BLEND",
      "doubleSided": true,
      "extensions": {
        "KHR_materials_pbrSpecularGlossiness": {
          "diffuseFactor": [
            0.8,
            0.8,
            0.8,
            0.0
          ],
          "glossinessFactor": 1.0,
          "specularFactor": [
            1.0,
            1.0,
            1.0
          ],
          "specularGlossinessTexture": {
            "index": 9
          }
        }
      },
      "name": "MeniscusEye",
      "normalTexture": {
        "index": 10,
        "scale": 0.3653409091
      }
    }
  ],
  "meshes": [
    {
      "name": "Mouth_Mouth_0",
      "primitives": [
        {
          "attributes": {
            "NORMAL": 1,
            "POSITION": 0,
            "TEXCOORD_0": 2
          },
          "indices": 3,
          "material": 0,
          "mode": 4
        }
      ]
    },
    {
      "name": "Hair_Hair_0",
      "primitives": [
        {
          "attributes": {
            "NORMAL": 5,
            "POSITION": 4,
            "TEXCOORD_0": 6
          },
          "indices": 7,
          "material": 1,
          "mode": 4
        }
      ]
    },
    {
      "name": "Head_Head_0",
      "primitives": [
        {
          "attributes": {
            "NORMAL": 9,
            "POSITION": 8,
            "TANGENT": 10,
            "TEXCOORD_0": 11
          },
          "indices": 12,
          "material": 2,
          "mode": 4
        }
      ]
    },
    {
      "name": "Eye_Eye_0",
      "primitives": [
        {
          "attributes": {
            "NORMAL": 14,
            "POSITION": 13,
            "TEXCOORD_0": 15
          },
          "indices": 16,
          "material": 3,
          "mode": 4
        }
      ]
    },
    {
      "name": "EyeScleraReflect_EyeScleraReflect_0",
      "primitives": [
        {
          "attributes": {
            "NORMAL": 18,
            "POSITION": 17,
            "TANGENT": 19,
            "TEXCOORD_0": 20
          },
          "indices": 21,
          "material": 4,
          "mode": 4
        }
      ]
    },
    {
      "name": "Eyelashes_Eyelashes_0",
      "primitives": [
        {
          "attributes": {
            "NORMAL": 23,
            "POSITION": 22,
            "TEXCOORD_0": 24
          },
          "indices": 25,
          "material": 5,
          "mode": 4
        }
      ]
    },
    {
      "name": "MeniscusEyeSpec_MeniscusEye_0",
      "primitives": [
        {
          "attributes": {
            "NORMAL": 27,
            "POSITION": 26,
            "TANGENT": 28,
            "TEXCOORD_0": 29
          },
          "indices": 30,
          "material": 6,
          "mode": 4
        }
      ]
    }
  ],
  "nodes": [
    {
      "children": [
        1
      ],
      "matrix": [
        0.138429194688797,
        0.0,
        0.0,
        0.0,
        0.0,
        3.073745584476417e-17,
        -0.138429194688797,
        0.0,
        0.0,
        0.138429194688797,
        3.073745584476417e-17,
        0.0,
        0.0,
        0.0,
        0.0,
        1.0
      ],
      "name": "Sketchfab_model"
    },
    {
      "children": [
        2
      ],
      "matrix": [
        1.0,
        0.0,
        0.0,
        0.0,
        0.0,
        0.0,
        1.0,
        0.0,
        0.0,
        -1.0,
        0.0,
        0.0,
        0.0,
        0.0,
        0.0,
        1.0
      ],
      "name": "ce0319e1fb40437dba85f5540e41deee.fbx"
    },
    {
      "children": [
        3,
        5,
        7,
        9,
        11,
        13,
        15,
        18,
        20
      ],
      "name": "RootNode"
    },
    {
      "children": [
        4
      ],
      "matrix": [
        89.08185577392578,
        0.0,
        0.0,
        0.0,
        0.0,
        89.08185577392459,
        1.4513275692747394e-05,
        0.0,
        0.0,
        -1.4513275692747394e-05,
        89.08185577392459,
        0.0,
        -15.645434379577637,
        2716.737548828125,
        965.3544311523438,
        1.0
      ],
      "name": "Mouth"
    },
    {
      "mesh": 0,
      "name": "Mouth_Mouth_0"
    },
    {
      "children": [
        6
      ],
      "matrix": [
        89.08185577392578,
        0.0,
        0.0,
        0.0,
        0.0,
        89.08185577392459,
        1.4513275692747394e-05,
        0.0,
        0.0,
        -1.4513275692747394e-05,
        89.08185577392459,
        0.0,
        -15.645434379577637,
        2716.737548828125,
        965.3544311523438,
        1.0
      ],
      "name": "Hair"
    },
    {
      "mesh": 1,
      "name": "Hair_Hair_0"
    },
    {
      "children": [
        8
      ],
      "matrix": [
        100.0,
        0.0,
        0.0,
        0.0,
        0.0,
        99.99999999999866,
        1.6292067073209114e-05,
        0.0,
        0.0,
        -1.6292067073209114e-05,
        99.99999999999866,
        0.0,
        0.0,
        0.0,
        0.0,
        1.0
      ],
      "name": "Head"
    },
    {
      "mesh": 2,
      "name": "Head_Head_0"
    },
    {
      "children": [
        10
      ],
      "matrix": [
        -65.15583048631922,
        -44.52712848496765,
        -61.41702578798792,
        0.0,
        -32.401335185591705,
        89.53956278095312,
        -30.542079976777014,
        0.0,
        68.592052790029,
        -9.470078337315971e-06,
        -72.76763544441263,
        0.0,
        735.88916015625,
        495.8309326171875,
        692.5791015625,
        1.0
      ],
      "name": "Camera"
    },
    {
      "name": "Object_10"
    },
    {
      "children": [
        12
      ],
      "matrix": [
        105.70051574707031,
        0.0,
        0.0,
        0.0,
        0.0,
        105.7005157470689,
        1.722080042433533e-05,
        0.0,
        0.0,
        -1.722080042433533e-05,
        105.7005157470689,
        0.0,
        -489.5654602050781,
        -152.33802795410156,
        -100.17433166503906,
        1.0
      ],
      "name": "Eye"
    },
    {
      "mesh": 3,
      "name": "Eye_Eye_0"
    },
    {
      "children": [
        14
      ],
      "matrix": [
        105.70051574707031,
        0.0,
        0.0,
        0.0,
        0.0,
        105.7005157470689,
        1.722080042433533e-05,
        0.0,
        0.0,
        -1.722080042433533e-05,
        105.7005157470689,
        0.0,
        -489.5654602050781,
        -152.33802795410156,
        -100.17433166503906,
        1.0
      ],
      "name": "EyeScleraReflect"
    },
    {
      "mesh": 4,
      "name": "EyeScleraReflect_EyeScleraReflect_0"
    },
    {
      "children": [
        16
      ],
      "matrix": [
        93.5958000445339,
        -3.535451347033275,
        -35.03322419927101,
        0.0,
        32.05399645411617,
        49.73281548284292,
        80.61751545311238,
        0.0,
        14.57281571268231,
        -86.68415700696319,
        47.68107998525372,
        0.0,
        500.44598388671875,
        2782.019775390625,
        1025.4151611328125,
        1.0
      ],
      "name": "Sun.001"
    },
    {
      "children": [
        17
      ],
      "matrix": [
        1.0,
        0.0,
        0.0,
        0.0,
        0.0,
        2.220446049250313e-16,
        1.0,
        0.0,
        0.0,
        -1.0,
        2.220446049250313e-16,
        0.0,
        0.0,
        0.0,
        0.0,
        1.0
      ],
      "name": "Object_16"
    },
    {
      "name": "Object_17"
    },
    {
      "children": [
        19
      ],
      "matrix": [
        2642.160400390625,
        0.0,
        0.0,
        0.0,
        0.0,
        2642.16040039059,
        0.0004304625821607686,
        0.0,
        0.0,
        -0.0004304625821607686,
        2642.16040039059,
        0.0,
        -7.3045878410339355,
        -3176.43115234375,
        852.9474487304688,
        1.0
      ],
      "name": "Eyelashes"
    },
    {
      "mesh": 5,
      "name": "Eyelashes_Eyelashes_0"
    },
    {
      "children": [
        21
      ],
      "matrix": [
        100.0,
        0.0,
        0.0,
        0.0,
        0.0,
        99.99999999999866,
        1.6292067073209114e-05,
        0.0,
        0.0,
        -1.6292067073209114e-05,
        99.99999999999866,
        0.0,
        0.0,
        0.0,
        0.0,
        1.0
      ],
      "name": "MeniscusEyeSpec"
    },
    {
      "mesh": 6,
      "name": "MeniscusEyeSpec_MeniscusEye_0"
    }
  ],
  "samplers": [
    {
      "magFilter": 9729,
      "minFilter": 9987,
      "wrapS": 10497,
      "wrapT": 10497
    }
  ],
  "scene": 0,
  "scenes": [
    {
      "name": "Sketchfab_Scene",
      "nodes": [
        0
      ]
    }
  ],
  "textures": [
    {
      "sampler": 0,
      "source": 0
    },
    {
      "sampler": 0,
      "source": 1
    },
    {
      "sampler": 0,
      "source": 2
    },
    {
      "sampler": 0,
      "source": 3
    },
    {
      "sampler": 0,
      "source": 4
    },
    {
      "sampler": 0,
      "source": 5
    },
    {
      "sampler": 0,
      "source": 6
    },
    {
      "sampler": 0,
      "source": 7
    },
    {
      "sampler": 0,
      "source": 8
    },
    {
      "sampler": 0,
      "source": 9
    },
    {
      "sampler": 0,
      "source": 10
    }
  ]
}
